<svg xmlns="http://www.w3.org/2000/svg" viewBox="0 0 468.64 304.64"><defs><style>#animal-1 svg{margin-left:2%;}.cls-12{fill:#111}</style><radialGradient id="Gradiente_sem_nome_43" cx="249.99" cy="189.91" r="183.34" gradientUnits="userSpaceOnUse"><stop offset="0" stop-color="#fbed21"/><stop offset="1" stop-color="#fff"/></radialGradient></defs><g id="Camada_2" data-name="Camada 2"><g id="Camada_1-2" data-name="Camada 1"><g id="Moorish_Idol" data-name="Moorish Idol"><path fill="url(#Gradiente_sem_nome_43)" d="M3 179.77c5.17-.86 19-3.31 30-7.05a22 22 0 0 0 7.54-4.05 23.28 23.28 0 0 0 6.95-10.82c4.27-12.84 28.5-42.25 39.87-54.18 13.23-13.87 15-9.26 55.69-40.08 18.48-14 31.32-24.11 34.8-26.82C231.93-5.57 336.78-.1 348.46.61 369.7 1.9 383.43 5 390.7 6.79c26.75 6.76 46.87 17.53 58.21 23.69 8.37 4.55 15.1 8.74 19.73 11.75l-.06-.17C447.32 30.72 411.52 14.72 367 9.36c-11.55-1.38-42.38-5.09-71.09 1-1 .2-.81.18-25.24 5.66-31.27 7-31.67 7.09-33.48 7.73-9.41 3.33-33.44 11.85-41.64 34-5.08 13.73-3.39 30.88 4 42.76 4.37 7 8.16 8.14 15.61 20 4.53 7.21 7.63 13.06 9.94 19.59l9.9 27.75a50 50 0 0 0 15.38 1.72c29.25-1.36 47.35-28.83 50.32-33.49-8.11 13.49-16.36 27.31-19.61 42.72-1.53 7.2-1.36 12-2.24 25.73-1.19 18.52-2.73 33.56-3.89 43.66l-5.54-3.19c-4.83-6-10.36-12.41-16.64-18.93-6.08-6.31-12-11.9-17.72-16.82a145.93 145.93 0 0 0-17.44 26c-11.08 21.12-16.81 44.59-26.08 66.56a4.61 4.61 0 0 1-2 2.65 4.23 4.23 0 0 1-3-.22c-13.35-4.77-19.69-19.49-28.49-30.6A68 68 0 0 0 120.91 250l-8.11-.28a92.14 92.14 0 0 0 34.2 26.49 50.91 50.91 0 0 1-23.24-3.68c-6.59-2.73-12.51-6.8-18.38-10.85l-27-18.61c-7.31-5-14.79-10.24-19.79-17.57-8.32-12.19-6.89-18-15-23.15-4.13-2.64-9.72-3.33-20.9-4.71A184.67 184.67 0 0 0 3 196.29c.16-1.38.31-2.76.47-4.14l4-3c1-1 2.07-1.93 3.1-2.9-4-.19-7.09-2-7.67-4.37a4.13 4.13 0 0 1 .1-2.11z"/><path fill="#9f7432" d="M24.86 175.15a41.75 41.75 0 0 1 6.7 7.07l.56.78c.49.69 1 1.4 1.45 2.07a21.52 21.52 0 0 0 4.87 4.75c.1-.16.47-4.26.63-6.23a124.09 124.09 0 0 1 2.24-15.66 47 47 0 0 1-10.77 5.57 49 49 0 0 1-5.68 1.65z"/><path fill="#1d1008" d="M23.54 197.74a17.28 17.28 0 0 0-4.54-7.22c-2.46-2.32-3.39-2.39-8.26-4.41a3.43 3.43 0 0 0-1.52-.36 3.53 3.53 0 0 0-1.7.78L0 191.88a15.51 15.51 0 0 0 6.79 7.19 16 16 0 0 0 12.9.57"/><path fill="#1c1717" d="M119.05 212.17c.41-6.86 1.42-9.21.94-14.69a43.58 43.58 0 0 0-1.79-8.56 142.33 142.33 0 0 1 .07-69.66c2.32-9.15 6-19.11 9.54-28.49 2.38-6.4 4.5-11.64 6-15.21l1.83-6.45c-3.84 2.85-7.32 5.34-10.33 7.45-2.77 1.94-7.13 5-12.87 8.68-7.06 4.55-7.34 4.36-10.53 6.59a77.24 77.24 0 0 0-13.31 11.82l-.06.19A131.94 131.94 0 0 0 65 139.69a94.17 94.17 0 0 0-6.57 18.54c-4.8 21-1.83 41.84-2.1 50-.23 6.81-.36 7.68 0 10.2 1.63 11.08 10.54 19.47 19 26.83l-.46-1.31a36.15 36.15 0 0 1 11.2 4.8c1.79 1.17 2.49 1.87 6.31 4.93 0 0 3.95 3.16 9.27 7.15a84.24 84.24 0 0 0 22.41 12.55 99.34 99.34 0 0 0 14.86 3.75c5.52 1.12 10.22 1.78 13.66 2.19l-.57-.73a116.6 116.6 0 0 1-11.53-6c-4.4-2.6-2.6-1.93-12-8.11-3.34-2.21-5.18-3.36-7.1-5.78a20.62 20.62 0 0 1-3.37-6.25c1.33.52 2.7 1.09 4.1 1.71s2.5 1.14 3.68 1.72v-.39a14.62 14.62 0 0 1-2.55-6.95 68.25 68.25 0 0 1-.69-7.7c-.25-7.34-2.31-8-3.37-16.21a63.3 63.3 0 0 1-.13-12.46z"/><path fill="#281919" d="M63.32 150c1.81 4.81 8 6.46 11.38 6.62a10.36 10.36 0 0 0 3.74-.46 12.05 12.05 0 0 0 5.26-4.24 18.79 18.79 0 0 0 4-8.26 10.19 10.19 0 0 0-2.34-8.66c-2.37-2.45-6-3.17-9.42-3.32a11.19 11.19 0 0 0-5.92 1c-4 2.07-5.3 6.6-6.13 9.57-.89 3.22-1.48 5.34-.57 7.75z"/><circle cx="74.89" cy="144.25" r="6.08" fill="#0a090d"/><path fill="#f3f3f3" d="M83.76 241.1c.24-.34-3.05-2-6.38-6.18-6-7.47-6.8-16.22-7.1-19.55-.76-8.44 1.42-18.62 2.33-21.63a12.57 12.57 0 0 0 .7-3.19c.06-1.14-.3-2.45-.93-2.68-.83-.3-1.47 1.27-1.83 2.64a93.24 93.24 0 0 0-2.63 29.78 21.36 21.36 0 0 0 3.22 10.92c4.11 6.67 12.24 10.42 12.62 9.89z"/><path fill="#2d0d0a" d="M190.59 301.92c-13.55-7.67-18.27-25.33-16.74-40.83s7.88-30.07 11-45.32a112.24 112.24 0 0 0-4.82-61.87c-2.17-5.75-4.81-11.35-6.36-17.29-2-7.65-2.13-15.64-2.09-23.54q.06-10.69.5-21.39c.32-7.81.81-15.7 3.06-23.18S181.6 53.87 188 49.42l-.6 1.65c-4.27 24 4.06 48.21 12.26 71.14 1.43 4 2.85 8 4.62 11.82 2.46 5.32 5.55 10.32 8.12 15.58a89.14 89.14 0 0 1 1.81 73.07c-4.06 9.48-9.85 18.48-11.14 28.71-.57 4.55-.21 9.17-.53 13.75-.47 6.89-2.44 13.58-4.4 20.2-1.73 5.83-3.48 11.7-6.38 17z"/><path fill="#c0b2ab" d="M190.29 102.23c3.44 9.61 6.51 19.37 10 29 4 10.77 11.27 19.89 14.89 30.76 7.45 22.34 3.37 48.65-7.82 69-.93 1.69 1.66 3.21 2.59 1.51 10.82-19.68 15.06-44.31 9.57-66.31-3.17-12.7-11.41-22.73-16-34.82-3.73-9.85-6.83-20-10.37-29.88-.65-1.8-3.55-1-2.9.8z"/><path fill="#89c2d3" d="M274.48 249.14c4.4-9.24 3.26-20.09 4.08-30.35a151.62 151.62 0 0 1 2.74-17.46l4.51-22.93a78 78 0 0 1 2.82-11.32c3.81-10.55 12.28-19.69 12.34-30.94 0 0-28.79 20.42-25.91 45 0 0-8.71 19.51-6.93 28 0 0 3.84 38.76 5.1 39.39z"/><path fill="#311111" d="M300.93 136.27c-6-1.65-12.48-.29-18.05 2.46s-10.37 6.79-15.12 10.79l-22.65 19.12a3.7 3.7 0 0 0-1.13 1.3 3.78 3.78 0 0 0 .11 2.39 291.7 291.7 0 0 1 8 42.55c.43 3.87.81 7.81 2.32 11.39a31.78 31.78 0 0 0 4.21 6.79 97.53 97.53 0 0 0 14.74 15.45 53.46 53.46 0 0 0-1.74-26.18c-1.43-4.44-3.42-8.81-3.52-13.46-.08-3.46.9-6.85 1.88-10.18l9.63-32.69c1.32-4.48 2.67-9 5.29-12.91 4.37-6.46 11.85-10.34 16.07-16.9"/><path d="M271 172.55a39.28 39.28 0 0 1-17.09.48c-1-.18-1.35 1.27-.4 1.45a41.18 41.18 0 0 0 17.88-.48.75.75 0 0 0-.39-1.45zM269.89 178.67a43.87 43.87 0 0 1-16.49-1.94c-.92-.29-1.32 1.15-.4 1.44a44.75 44.75 0 0 0 16.89 2c1-.07 1-1.57 0-1.5zM268 186q-6.84-2.52-13.85-4.54a.75.75 0 0 0-.4 1.45q7 2 13.85 4.54c.9.33 1.3-1.11.4-1.45zM267.83 193.78c-5.46-1.5-9.69-5.66-15.28-6.85-.94-.2-1.34 1.25-.4 1.45 5.57 1.18 9.82 5.34 15.28 6.85a.75.75 0 0 0 .4-1.45zM266.16 210.93c-4.33-2.12-8.53-4.43-12.64-6.94a.75.75 0 0 0-.76 1.3q6.17 3.75 12.64 6.93c.86.42 1.62-.87.76-1.29z" class="cls-12"/></g></g></g></svg>