<svg xmlns="http://www.w3.org/2000/svg" viewBox="0 0 527.67 206.79"><defs><style>#nome-1{padding-top:20vh!important}#animal-1{display:flex}#animal-1 svg{width:70%}.cls-5{fill:#2b2c2a}.cls-7{fill:#c1ab9d}.cls-13{fill:#020202}.cls-16{fill:#c6c0b6}.cls-18{fill:#332725}</style></defs><g id="Camada_2" data-name="Camada 2"><g id="Camada_1-2" data-name="Camada 1"><g id="Botia_Palhaço" data-name="Botia Palhaço"><path fill="#a85822" d="M240.43 166.89l-7.53-3.62-29.53 38.15c3.82.64 7.76-.82 10.89-3.12s5.57-5.38 8-8.42l18.19-23"/><path fill="#6f5d54" d="M500 76.54c1.74 1.66 3.27 2.95 4.4 3.85.83.67 2.85 1.92 6.9 4.41.61.37 2.1 1.27 3.47.84.11 0 .56-.17.57-.37 0-.36-1.35-.52-2.73-1.13a11.39 11.39 0 0 1-2.61-1.82 73.63 73.63 0 0 1-6.27-6l1.89-.51a27.25 27.25 0 0 0 3.94-2.35 16.94 16.94 0 0 0 4.83-4.6 13 13 0 0 0 2-6.94l-.21-.07c3.87.53 7.68 1.8 9.17 4.76 1.82 3.58-.36 8.43.38 8.64.43.11 1.4-1.48 1.78-3a6.76 6.76 0 0 0 .19-1.87c-.06-2.42-.1-4.23-1-6.08-1.07-2.23-3-3.1-5.71-5.27a8.11 8.11 0 0 0-3.48-2z"/><path fill="#a16635" d="M290.46 19.08A234.52 234.52 0 0 1 265 9.22c-5.29-2.42-10.67-5.08-16.48-5.35a3.13 3.13 0 0 0-1.79.29 3.23 3.23 0 0 0-1.19 2 34.57 34.57 0 0 0-1.2 6.37 8.43 8.43 0 0 0 .31 3.84c.63 1.62 2.08 2.75 3.35 3.93 2.86 2.65 5.15 5.95 8.37 8.13 4 2.69 9 3.41 13.79 3.38 7.4 0 15.27-2 20.18-7.5A5.76 5.76 0 0 0 292 21.1a2.57 2.57 0 0 0-1.83-2.8"/><path fill="#b8782b" d="M517.93 59.48c-.92-18.51-45.86-31.57-81.87-42-15.9-4.62-30.75-8.85-51.51-10.72 0 0-34.91-3.16-85.32 7.62a168.93 168.93 0 0 0-21.45 6.18c-9.67 3.77-18.63 9.1-27.54 14.42l-74.7 44.52c-17.75 10.58-27.31 14.67-34.87 17-32.79 10.27-59.49 3.9-65.44 17.16-.14.33-2.28 5.29-.37 10.14 4.07 10.34 21 6.2 26.65 15.76 6.34 10.79-8.49 27.51-2.3 33.37 1.58 1.49 3.88 2.12 9.35 1 32.37-6.84 37.44-10.56 64-11.34 32.24-.94 33.4 7.87 64.08 4.79 18.27-1.83 23.69-5.54 48.42-7.13 18.83-1.21 21.92.54 34.54-.75 19.62-2 32.46-8.3 52.88-17.83 67.24-31.35 61.68-25.33 87.05-39.67 38.87-22 58.93-32 58.4-42.52z"/><path d="M515.42 51.59C503 38.16 484.89 32.84 468.19 26.65c-1.36-.5-1.95 1.67-.6 2.17 16.35 6.06 34.07 11.22 46.24 24.36 1 1.07 2.57-.52 1.59-1.59z" class="cls-5"/><path fill="#8c4715" d="M133.76 169.1c6.79-5.57 8.56-15.61 6.39-24.12s-7.57-15.8-13.2-22.54c-5.29-6.33-11-12.52-18.31-16.4-5.06-2.7-10.67-4.18-16.26-5.47C72.75 96 52.59 93.44 33.51 86.93c-7-2.39-14.31-5.36-21.62-4.11S-2.18 91.76.67 98.61c1.62 3.92 5.73 6.21 9.76 7.54s8.33 2.06 12 4.26a52.42 52.42 0 0 1 5.91 4.64c5.66 4.63 12.34 7.82 18.94 11l42.54 20.25c-5.71 5.67-12.94 9.49-20.06 13.23l-23.48 12.29c-1.25.65-2.62 1.44-3 2.8-.89 3 3.3 4.73 6.41 4.93 27.46 1.76 54.79-4.06 81.7-9.84"/><path d="M115.23 130.12a370.68 370.68 0 0 0-49.56-14c-1-.19-1.35 1.25-.4 1.45a369.15 369.15 0 0 1 49.56 14c.91.33 1.3-1.12.4-1.44zM120.68 140.1c-12-3.26-24.05-6.44-36-9.77-5.49-1.53-10.76-4.39-16.26-5.64-3-.7-5.87-.19-7.83 2.33-.59.76.47 1.82 1.06 1.06 3.91-5 11.62.25 16.22 1.79s9.18 2.66 13.79 3.91l28.65 7.76a.75.75 0 0 0 .4-1.44zM103 114.86a371.31 371.31 0 0 0-43.23-9.57c-6.31-1-13-2.38-19.39-2.45a13.36 13.36 0 0 0-6.52 1.38c-3.66 1.87-6.28 5.76-11 4.06-.91-.33-1.3 1.12-.4 1.44 5.22 1.87 7.86-2.33 12.21-4.21 7.09-3.06 17.48.08 24.75 1.23a373.34 373.34 0 0 1 43.23 9.56.75.75 0 0 0 .4-1.44zM130 153.84A304.45 304.45 0 0 0 81 155c-1 .1-1 1.6 0 1.5a304.45 304.45 0 0 1 49-1.16c1 .06 1-1.44 0-1.5zM132 164.25c-9.76-1.16-19.1 1.41-28.76 2.25a66.08 66.08 0 0 1-28.54-3.95c-.91-.34-1.3 1.11-.4 1.44a66.91 66.91 0 0 0 27.13 4.15c10.26-.62 20.23-3.62 30.57-2.39 1 .11.95-1.39 0-1.5zM79 174.37a151 151 0 0 0-25.51-1c-1 0-1 1.54 0 1.5a151 151 0 0 1 25.51 1c1 .11 1-1.39 0-1.5zM124.2 147.38a329.69 329.69 0 0 0-33.19-3c-1 0-1 1.46 0 1.5a327.29 327.29 0 0 1 32.79 2.94c.94.14 1.35-1.31.4-1.44zM54.47 113.66A56.22 56.22 0 0 0 36 118.48c-.88.39-.12 1.69.75 1.29a54.07 54.07 0 0 1 17.75-4.61c1-.08 1-1.58 0-1.5zM54 95.15c-9.5-.43-19.1-1.27-28.62-1.05-7.36.16-14.5 1.46-20.57 5.84-.78.56 0 1.86.76 1.3 6.8-4.91 14.89-5.76 23.07-5.66 8.45.11 16.92.69 25.36 1.07 1 0 1-1.46 0-1.5z" class="cls-7"/><path fill="#2d332d" d="M293.23 16.06c-4 5.92 0 14.84 2.15 20.17 16.69 40.94 6.23 66.37 23.69 89.59 5.58 7.43 12.25 14 17.92 21.34 1.7 2.19 3.43 4.56 6 5.59 3.64 1.45 7.71-.22 11.26-1.86l13.75-6.36a13.21 13.21 0 0 0 4.48-2.86c3.33-3.69 1.63-9.46 0-14.17a116.68 116.68 0 0 1-3.88-59.68c3.83-19.28 15.06-40.53 11.86-53.07A11.15 11.15 0 0 0 378 9.8c-4.51-4.94-12.75-3.93-19.69-3.21-14.67 1.52-29.44 1.95-44.09 3.66-14.28 1.66-18.5 2.11-20.99 5.81z"/><path d="M399.49 9.14a367.31 367.31 0 0 0 26.23 47.56c3.81 5.84 7.79 11.58 11.76 17.32L447.9 89c2.75 4 5.94 8.23 10.66 9.22 5 1 10.17-2.24 12.57-6.74s2.48-9.9 1.65-14.93a45.79 45.79 0 0 0-4.62-13.79c-4.64-8.84-12.37-16.75-12.72-26.73-.11-3.38.6-7-1-10s-5-4.25-8.12-5.34a298.27 298.27 0 0 0-46.61-12" class="cls-5"/><circle cx="446.3" cy="60.59" r="12.95" fill="#2e3235"/><circle cx="447.98" cy="61.89" r="5.12" fill="#0b1813"/><circle cx="446.93" cy="60.59" r="10.61" fill="none" stroke="#616a70" stroke-miterlimit="10" stroke-width=".5"/><path fill="#272e2c" d="M216.32 190.55c-4 5.25-12 19.46-20 11.85-4.09-3.88-7.41-9.09-10.37-13.86.84-.29 2.13-1.15 2.33-2.11-5.71-6.28-7.21-14.54-4-21.72-8.79 1.42-2 4.09 0 0-7.68 1.92-13.69-6.34-16.69-12.34-6-10.51-11.26-21.78-11.26-33.79 0-9.76.75-20.27 6.75-29.28s16.51-12.76 26.27-17.3c.75-.75 2.25-1.5 2.25-3s0-2.25-2.69-3.15c.86-.75 1.7-.22 0 0 1.19-.6 2.69-1.35 2.69-2.85-2.25-3.76-3.75-8.26-1.5-12 3.76 0 4.51-3.75 3.76-6.75a3.34 3.34 0 0 0-1.94-.88c1.6 1 2.07.52 0 0 3.44 1.63 4.19-2.88 3.44-5.13-1.5-1.5-3-3.75-3-6 0-3 3-3.75 3.76-6 0-2.26-3-3-1.5-5.26a10.92 10.92 0 0 1 6.75-4.5c1.5-.75 2.26-2.26 1.5-4.51-.75-.75-1.5-.75-1.91-1.15 2 0 1.51.11 0 0a4.55 4.55 0 0 1 1.91-.35c1.51-6.76 6-9 12-9.76 15-1.5 32.28-1.5 44.29 9 17.66 15.45 0 37.17-11.21 50-2.29 2.63-4.75 5.13-6.77 8-6.85 9.65-8.05 22.09-9 33.89l-2.31 27.9a40.33 40.33 0 0 0-.14 7.92c.44 3.74 1.91 7.27 2.95 10.89 1.83 6.35 4.57 15.95 1.22 21.79-4.17 7.27-12.4 13.72-17.58 20.45z"/><path d="M252.17 14.5c-7.27-.85-13.52-5.83-20.31-8.34A72.55 72.55 0 0 0 213.11 2c-.48 0-.47.71 0 .75a71.42 71.42 0 0 1 23.29 6c5.26 2.41 9.91 5.74 15.77 6.42.48.05.47-.7 0-.75zM257.28 19.38c-16.9-2.53-31.69-13.81-49.18-12.95-.48 0-.48.77 0 .75 17.42-.85 32.16 10.4 49 12.92.47.07.67-.65.2-.72zM259.39 24.48A230.55 230.55 0 0 0 203.61 15c-.48 0-.48.73 0 .75a229.88 229.88 0 0 1 55.58 9.45.37.37 0 0 0 .2-.72zM257.2 27.53c-16.95-.26-34.06-5.54-50.72-.26-.46.15-.26.87.2.73 16.6-5.27 33.64 0 50.52.28a.38.38 0 0 0 0-.75zM248.64 33c-14.82-1.37-29.77 1.18-44.47 2.83-.48.05-.48.8 0 .75 14.7-1.65 29.65-4.2 44.47-2.83.48.05.48-.7 0-.75zM238.72 37c-13.91-1.38-26.31 7.43-40.2 6.29-.48 0-.48.71 0 .75 13.9 1.14 26.3-7.67 40.2-6.29.48 0 .48-.71 0-.75zM223.81 170.31c-3.88 2.68-6.46 6.72-10.19 9.61-4.69 3.63-10 6.55-15 9.68-.41.26 0 .91.38.65 4.82-3 9.85-5.83 14.42-9.22 4-3 6.7-7.26 10.77-10.07.39-.28 0-.93-.38-.65zM213.75 170.15A143.79 143.79 0 0 0 191.32 183c-.39.27 0 .92.38.64a144.14 144.14 0 0 1 22.43-12.8c.44-.2.06-.84-.38-.64zM203.81 169.29q-8 3.5-16.31 6.25c-.45.15-.26.88.2.73q8.38-2.81 16.49-6.33c.44-.19.06-.84-.38-.65zM216.14 173.08c-6.57-.3-9.88 7-15.78 8.7a.38.38 0 0 0 .2.73c5.81-1.64 9.24-9 15.58-8.68.49 0 .48-.73 0-.75zM225.52 173.25c-2.28 5.06-6.5 9.39-10.25 13.44-3.54 3.81-8.52 10.51-14.11 10.68a.38.38 0 0 0 0 .75c5.2-.15 8.91-5 12.28-8.42 4.61-4.75 10-10 12.73-16.07.19-.44-.45-.82-.65-.38z" class="cls-13"/><path fill="#f4753b" d="M312 161.16c-5.19-4.42-12.39-5.72-19.21-5.67-11 .08-21.63 3.19-32.15 6.27l.83 1.7c-2.42 2.07-1.88 5.89-1.12 9l2.58 10.54 2 8.1a5.85 5.85 0 0 0 .79 2.07c.78 1.08 2.18 1.51 3.15 2.42 1.61 1.5 1.76 3.95 2.12 6.12s1.44 4.67 3.62 5a6 6 0 0 0 3.05-.59 49.8 49.8 0 0 0 11-5.67c8.88-6.43 13.69-16.93 18.12-27l5.85-13.22"/><path fill="#6d6352" d="M260.64 161.76c1.77-2.67 4.68-2 15.7-4.21 9.38-1.88 12.14-2.45 16.45-2.06 4.95.45 9.36.84 10.59 3.53 1.46 3.2-2.48 7.62-8.08 19.25a19.4 19.4 0 0 0-1.81 5.62 22.57 22.57 0 0 0 0 5.82c.27 7-14.53 18.08-21.87 14.25-3.08-1.61-4.36-5.58-6.69-12.84-.78-2.42-.37-1.85-2-8.1-1.88-7.34-2.5-8.48-2.87-11.87-.53-4.88-.79-7.32.58-9.39z"/><path d="M296.18 180.64c-8.13 2.79-14.9 8.54-23.35 10.49-.94.22-.54 1.66.4 1.45 8.47-2 15.21-7.7 23.35-10.49.91-.31.52-1.76-.4-1.45zM294.8 178.79q-12 3.45-23.84 7.65c-.91.32-.52 1.77.4 1.44q11.81-4.19 23.84-7.64a.75.75 0 0 0-.4-1.45zM296.29 174.2c-3.54-1.68-6.91 1.26-10.5 2.29a127.07 127.07 0 0 1-17.51 3.39c-.95.14-.55 1.58.4 1.45a144.45 144.45 0 0 0 14.9-2.7 71.81 71.81 0 0 0 6.89-2.07c1.48-.54 3.52-1.8 5.06-1.07.87.41 1.63-.88.76-1.29zM296.7 169.56c-9.77 3.51-19.58 6.82-30.12 6.15-1-.06-1 1.44 0 1.5 10.66.68 20.61-2.65 30.52-6.2.9-.33.51-1.78-.4-1.45zM299.7 164.79a196.65 196.65 0 0 0-34.7 6.14.75.75 0 0 0 .39 1.44 195.17 195.17 0 0 1 34.34-6.08c1-.09 1-1.59 0-1.5z" class="cls-16"/><path d="M299.72 158.52c-12.46 2.57-24 7.8-35.44 13.18-.87.41-.11 1.7.76 1.29 11.34-5.32 22.75-10.48 35.08-13 .94-.2.54-1.65-.4-1.45zM285.42 158a84.64 84.64 0 0 0-22.64 8.62c-.85.47-.09 1.77.75 1.3a83.41 83.41 0 0 1 22.29-8.48c.94-.21.55-1.65-.4-1.44zM293.34 191.33a22.53 22.53 0 0 0-7.53 2 33.71 33.71 0 0 1-9.93 2.19c-.95.09-1 1.59 0 1.5a34.15 34.15 0 0 0 8.27-1.44c3.1-1 5.84-2.61 9.19-2.74 1 0 1-1.54 0-1.5zM295.44 186.73q-10.2 3-20.2 6.58c-.91.33-.52 1.78.39 1.45q10-3.57 20.21-6.59a.75.75 0 0 0-.4-1.44z" class="cls-16"/><path fill="#b42a13" d="M415.26 114.86a121.37 121.37 0 0 1-7.82 28.31 43.2 43.2 0 0 1-5 9.38 45.13 45.13 0 0 1-5.66 6.07 152.93 152.93 0 0 1-22.46 17.28c-2 1.23-4.23 2.46-6.44 1.82s-3.26-4.24-1.16-5.19c-4.38-1.48-.77-10.12-5-12a11.34 11.34 0 0 0 5.52-6.52 7.89 7.89 0 0 0-4.75.82c-1-2.72 1.41-5.4 3.61-7.3l18.4-15.92c3.6-3.11 7.23-6.25 10.06-10.07 2.51-3.38 4.73-7.55 8.78-8.74 3.81-1.13 7.79.86 11.27 2.78"/><path d="M403.32 134.92c-4.11 6.18-8 12.52-12.39 18.53a30.4 30.4 0 0 1-8.49 8.35c-2.66 1.64-5.56 2.83-8.21 4.5-.4.25 0 .9.38.64 6-3.79 11.55-6 16-11.81 4.82-6.3 9-13.22 13.36-19.83.27-.4-.38-.78-.65-.38zM396.1 136.07q-6.72 9.1-14 17.76c-4.37 5.17-8.74 10.85-14.45 14.58-.41.26 0 .91.37.65 5.8-3.79 10.18-9.46 14.61-14.7 4.91-5.8 9.6-11.79 14.12-17.91.29-.39-.36-.76-.65-.38zM376.8 142.8a60.87 60.87 0 0 0-5.93 11c-.19.44.54.64.72.19a60.45 60.45 0 0 1 5.85-10.86c.27-.4-.37-.78-.64-.38zM390.08 138.35c-4.34 2.5-4.45 8.13-7.91 11.4-.35.34.18.87.53.54 3.39-3.22 3.54-8.86 7.76-11.29a.38.38 0 0 0-.38-.65zM371 144.68a12.07 12.07 0 0 1-8.48 5.1c-.47.06-.48.81 0 .75a12.86 12.86 0 0 0 9.12-5.47c.28-.39-.37-.77-.64-.38z" class="cls-18"/><path fill="none" stroke="#332725" stroke-miterlimit="10" stroke-width=".25" d="M384.36 142.73c-3.68 1.87-5.26 6.15-7.28 9.75a32 32 0 0 1-6.26 8"/></g></g></g></svg>