<svg xmlns="http://www.w3.org/2000/svg" viewBox="0 0 442.34 238.58"><defs><style>#nome-1{padding-top:20vh}#animal-1{display:flex}#animal-1 svg{width:70%}.cls-1{fill:#dadada}.cls-4{fill:#06010b}.cls-6{fill:#cdfbfd}.cls-7{fill:#f05a24}.cls-8{fill:#c05c2f;stroke:#54473c;stroke-linecap:round;stroke-miterlimit:10;stroke-width:.25px}</style></defs><g id="Camada_2" data-name="Camada 2"><g id="Camada_1-2" data-name="Camada 1"><g id="Peixe_Palhaço" data-name="Peixe Palhaço"><path d="M126.87 39.92c-1.63-2.65-4.59-3.72-7.43-4.62-.46-.14-.66.58-.2.73 2.64.83 5.46 1.79 7 4.27.25.41.9 0 .64-.38z" class="cls-1"/><path d="M129.54 38.27l-7.16-2.79c-.45-.18-.64.55-.2.72l7.16 2.8c.45.17.65-.55.2-.73zM132.78 37.77a13.2 13.2 0 0 0-6.07-3.4.38.38 0 0 0-.2.73 12.27 12.27 0 0 1 5.74 3.2c.34.33.87-.2.53-.53zM133.68 37.06a12.16 12.16 0 0 0-5.9-4.14c-.46-.16-.66.57-.2.72a11.41 11.41 0 0 1 5.56 4c.3.38.83-.15.54-.53z" class="cls-1"/><path d="M137.27 36.32a47.63 47.63 0 0 1-6.59-2.68c-.43-.21-.81.43-.38.65a49 49 0 0 0 6.77 2.71c.46.15.66-.58.2-.72z" class="cls-1"/><path d="M139.17 36.59a13.56 13.56 0 0 0-6.17-2.92c-.48-.09-.68.63-.2.72a12.83 12.83 0 0 1 5.88 2.73c.37.3.9-.23.53-.53zM152.78 35.18A19.57 19.57 0 0 0 142.4 33c-.48 0-.48.78 0 .75a18.83 18.83 0 0 1 10 2.07c.43.22.81-.43.38-.65z" class="cls-1"/><path d="M149.08 35.44a15.36 15.36 0 0 0-4-1.23c-1.94-.28-4.21.2-5.87-1.11-.37-.29-.9.24-.53.53a5.66 5.66 0 0 0 3.32 1.14 18.64 18.64 0 0 1 6.71 1.32c.43.2.82-.45.38-.65z" class="cls-1"/><path d="M142.65 35.65c-2.81 0-4.57-3.21-7.51-2.63-.47.1-.27.82.2.72 2.67-.53 4.62 2.63 7.31 2.66a.38.38 0 0 0 0-.75z" class="cls-1"/><path d="M144.28 35.71L140 33.64c-.43-.21-.81.44-.37.65l4.27 2.06c.44.21.82-.43.38-.64zM136.55 34.7c-2-.13-4.17 1.21-6 1.91-.44.18-.25.91.2.73l2.71-1.07a7.16 7.16 0 0 1 3.05-.82c.48 0 .48-.72 0-.75zM130.2 37.32a11.73 11.73 0 0 0-7.31-3c-.48 0-.48.73 0 .75a10.87 10.87 0 0 1 6.78 2.75c.36.31.9-.21.53-.53zM127.32 38a23.34 23.34 0 0 0-7.16-2.74c-.47-.09-.67.63-.2.73a22.41 22.41 0 0 1 7 2.66.38.38 0 0 0 .38-.65z" class="cls-1"/><g opacity=".6"><path d="M114.43 42.52a78.36 78.36 0 0 0-9-4.05c-.46-.17-.65.56-.2.73a73.66 73.66 0 0 1 8.84 4c.43.23.81-.42.38-.65zM113.69 44.64a16 16 0 0 0-9.45-1.75c-.47 0-.48.8 0 .75a15.26 15.26 0 0 1 9.07 1.65c.43.22.81-.43.38-.65z" class="cls-1"/><path d="M109.63 45.83a19.73 19.73 0 0 0-7-3.2c-.47-.11-.67.61-.2.72a19.25 19.25 0 0 1 6.86 3.12c.39.29.77-.36.38-.64z" class="cls-1"/><path d="M110.67 45.47a61.46 61.46 0 0 1-6.18-4.06c-.38-.29-.76.36-.38.64a59 59 0 0 0 6.19 4.07.37.37 0 0 0 .37-.65zM105.94 46.94c-.36.39-3.67-2.19-4.07-2.47s-.78.38-.38.65c1.1.75 2.2 1.52 3.32 2.25.52.34 1.17.63 1.66.1.33-.35-.2-.88-.53-.53zM105.2 49.3a14.33 14.33 0 0 0-6.5-3.68.37.37 0 0 0-.2.72 13.5 13.5 0 0 1 6.17 3.49c.35.34.88-.19.53-.53z" class="cls-1"/><path d="M104.38 49.44c-.7.18-1.28-.7-1.75-1.08a7.21 7.21 0 0 0-1.23-.8 17.07 17.07 0 0 0-3.09-1.13.37.37 0 0 0-.2.72 10.77 10.77 0 0 1 4.29 2c.67.59 1.23 1.26 2.18 1a.38.38 0 0 0-.2-.73zM108.55 49.5a25.69 25.69 0 0 0-6.15-3.5c-.45-.18-.65.55-.2.73a24.62 24.62 0 0 1 6 3.43c.39.29.76-.36.38-.65zM110.74 47.74a23.11 23.11 0 0 0-7.27-3c-.47-.11-.67.61-.2.72a22.76 22.76 0 0 1 7.09 2.9c.41.26.79-.39.38-.64zM109.63 45.4c-1.5-1.08-3-2.14-4.58-3.15-.88-.57-2.24-1.9-3.34-1.85a.39.39 0 0 0-.36.27l-.07.19a.41.41 0 0 0 .17.43l.13.09c.39.29.77-.36.38-.64q-.22.61.48.75l1 .62 2 1.27c1.31.86 2.59 1.76 3.85 2.67.4.28.77-.37.38-.65zM112.94 44.87l-8.43-5c-.41-.25-.79.4-.37.65l8.42 5c.41.25.79-.4.38-.65z" class="cls-1"/><path d="M107.72 47.65a13.35 13.35 0 0 0-7.72-3.94c-.47-.07-.68.65-.2.72a12.71 12.71 0 0 1 7.39 3.75.38.38 0 0 0 .53-.53z" class="cls-1"/><path d="M105.39 47.28a9.21 9.21 0 0 0-5.15-3.73.38.38 0 0 0-.2.73 8.35 8.35 0 0 1 4.71 3.38c.27.39.92 0 .64-.38zM101.87 46.55l-2.3-2.67c-.31-.36-.84.17-.53.53l2.3 2.67c.32.37.85-.16.53-.53z" class="cls-1"/><path d="M105.31 48l-4.67-3.53c-.39-.29-.76.36-.38.65l4.67 3.53c.38.29.76-.36.38-.65zM102.9 43.91a12.28 12.28 0 0 1-2.51-1.72c-.36-.32-.89.21-.53.53a13.15 13.15 0 0 0 2.66 1.84c.43.22.81-.43.38-.65zM115.28 44.22a18.51 18.51 0 0 0-8.34-4.48c-.47-.11-.67.62-.2.73a17.56 17.56 0 0 1 8 4.28c.35.32.88-.2.53-.53zM112.77 44.16a16.93 16.93 0 0 0-5.64-2.59.38.38 0 0 0-.19.73 16.2 16.2 0 0 1 5.45 2.51c.4.28.77-.37.38-.65z" class="cls-1"/></g><path d="M125.19 39.64l-4.46-2.13c-.44-.21-.82.44-.38.65l4.47 2.13c.43.2.81-.44.37-.65zM161.51 36.19l-3.74-2.53c-.4-.27-.77.37-.37.64l3.73 2.54c.4.27.77-.38.38-.65z" class="cls-1"/><path d="M158.73 35.45a8.68 8.68 0 0 0-3.66-2.45c-.46-.16-.66.56-.2.72A8 8 0 0 1 158.2 36c.32.36.85-.17.53-.53z" class="cls-1"/><path d="M156.79 35.21a12.21 12.21 0 0 0-4.33-2.64c-.45-.16-.65.56-.19.72a11.42 11.42 0 0 1 4 2.45c.35.33.88-.2.53-.53zM154.36 35.26a10.32 10.32 0 0 0-4.48-2.75c-.46-.14-.66.58-.2.73a9.44 9.44 0 0 1 4.15 2.55.38.38 0 0 0 .53-.53zM152.13 35.61l-7.15-3c-.44-.18-.82.46-.38.65l7.15 3c.44.19.83-.46.38-.65zM147.87 36a11.77 11.77 0 0 0-6.77-2.42.38.38 0 0 0 0 .75 11.15 11.15 0 0 1 6.39 2.31c.39.29.76-.36.38-.64zM140.64 36.06a25.15 25.15 0 0 0-5.95-2.19c-.47-.1-.67.62-.2.73a24.61 24.61 0 0 1 5.77 2.1c.43.23.81-.42.38-.64zM131.91 37.24a27.13 27.13 0 0 0-7-3 .37.37 0 0 0-.2.72 26.6 26.6 0 0 1 6.78 2.91c.41.25.79-.4.38-.65zM127.4 36.73a17.2 17.2 0 0 0-4.63-1.56c-.47-.09-.67.64-.2.72a16.73 16.73 0 0 1 4.43 1.49c.43.21.81-.43.37-.65zM124.86 39.18a13.34 13.34 0 0 0-3.29-2c-.44-.19-.82.45-.38.65a12.27 12.27 0 0 1 3.14 1.94c.37.3.9-.22.53-.54z" class="cls-1"/><g opacity=".8"><path d="M115.84 41a31 31 0 0 1-6.84-2.13c-.44-.19-.82.45-.38.65a31.55 31.55 0 0 0 7 2.21c.47.09.67-.63.2-.72z" class="cls-1"/><path d="M117.58 40.79c-2.82-.88-4.74-3.69-7.91-3.44-.48 0-.48.79 0 .75 3-.23 5 2.57 7.71 3.41.46.15.66-.58.2-.72z" class="cls-1"/><path d="M121.06 40.92a17.9 17.9 0 0 0-8-3.42c-.47-.08-.67.65-.19.72a17.63 17.63 0 0 1 7.85 3.35c.38.29.76-.36.38-.65zM123 39a17.5 17.5 0 0 0-7.17-2.83c-.47-.08-.67.64-.2.72a17 17 0 0 1 7 2.75c.4.28.77-.37.38-.64z" class="cls-1"/><path d="M125.39 40c-2.94-.95-5.29-3.46-8.57-3.07-.47.05-.48.8 0 .75 3.16-.38 5.53 2.13 8.37 3.05.46.14.66-.58.2-.73z" class="cls-1"/><path d="M122.44 41.42a23 23 0 0 0-3.63-3.42 10.2 10.2 0 0 0-4.37-1.42c-.47-.05-.47.7 0 .75a9.23 9.23 0 0 1 4.41 1.59 26.36 26.36 0 0 1 3.05 3c.35.33.89-.2.54-.53zM118.87 42.46a10.4 10.4 0 0 0-6.83-2c-.48 0-.48.78 0 .75a9.71 9.71 0 0 1 6.45 1.94c.39.29.76-.36.38-.65z" class="cls-1"/><path d="M115.71 43.21a38.25 38.25 0 0 0-5.51-2.84c-.45-.19-.64.53-.2.72a37.87 37.87 0 0 1 5.33 2.76.37.37 0 0 0 .38-.64z" class="cls-1"/><path d="M116.7 42.74a19.44 19.44 0 0 1-4.48-2.32c-.4-.27-.77.38-.38.65a20.13 20.13 0 0 0 4.66 2.39c.46.17.65-.56.2-.72zM124.34 40.24a42.49 42.49 0 0 0-6.58-3.24c-.45-.18-.64.54-.2.72a41.11 41.11 0 0 1 6.4 3.2.37.37 0 0 0 .38-.64zM121.71 41a37.79 37.79 0 0 0-6.53-2.75c-.46-.15-.66.57-.2.72a36.84 36.84 0 0 1 6.35 2.68c.42.23.8-.42.38-.65zM119.74 41.48c-2.7-.45-4.64-2.9-7.48-2.84-.48 0-.48.77 0 .75 2.72-.06 4.66 2.38 7.29 2.81.47.08.67-.64.19-.72z" class="cls-1"/><path d="M113.23 39.13a5.77 5.77 0 0 1-2.78-1.13c-.38-.3-.91.23-.53.53a6.36 6.36 0 0 0 3.08 1.32c.47.06.67-.66.2-.72z" class="cls-1"/><path d="M113.44 39.35l-4.32-.76c-.47-.08-.67.64-.2.72l4.32.76c.47.09.67-.64.2-.72z" class="cls-1"/></g><path d="M168.3 37.47l-4.11-3c-.39-.28-.77.37-.38.65l4.11 3c.39.29.76-.36.38-.65zM165.24 36.73a8.94 8.94 0 0 1-3-1.53c-.37-.29-.91.23-.53.53a9.7 9.7 0 0 0 3.37 1.72.37.37 0 0 0 .19-.72z" class="cls-1"/><path d="M164 36.06a17.45 17.45 0 0 0-2.51-2.18c-.39-.28-.77.37-.38.65a16 16 0 0 1 2.36 2.06c.34.35.87-.18.53-.53zM162.37 37.46a3.48 3.48 0 0 0-2.76-3.08c-.47-.1-.67.62-.2.72a2.75 2.75 0 0 1 2.21 2.36c0 .47.8.48.75 0z" class="cls-1"/><path d="M163.9 36.56a13 13 0 0 0-3.53-2.67c-.43-.23-.81.42-.38.64a12.42 12.42 0 0 1 3.38 2.56c.33.35.86-.18.53-.53zM165.71 36.63a3.86 3.86 0 0 1-1.6-1.25c-.28-.39-.93 0-.64.37a4.78 4.78 0 0 0 2 1.6c.45.19.64-.54.2-.72zM171.14 38.18l-2.91-2.26c-.38-.29-.91.24-.53.53l2.91 2.26c.38.29.92-.24.53-.53z" class="cls-1"/><path d="M168.68 37.63l-1.28-1.53c-.31-.37-.84.16-.53.53l1.28 1.53c.31.37.84-.16.53-.53zM171.76 38.2a3.69 3.69 0 0 1-2.17-2c-.2-.44-.84-.06-.65.38a4.44 4.44 0 0 0 2.62 2.35c.46.15.65-.57.2-.73zM174.65 39.12L171.84 37c-.39-.3-.76.35-.38.64l2.81 2.17c.39.3.76-.35.38-.64z" class="cls-1"/><path d="M173.19 39.4l-1.7-2.2c-.29-.38-.82.16-.53.53l1.7 2.2c.29.38.82-.15.53-.53zM175.74 40.17a5.42 5.42 0 0 0-2-2.58c-.39-.28-.76.37-.38.65a4.42 4.42 0 0 1 1.64 2.13c.16.45.88.26.72-.2zM178.55 40.44a5.6 5.6 0 0 1-2.19-2.1.37.37 0 0 0-.64.38 6.31 6.31 0 0 0 2.45 2.36c.43.23.81-.41.38-.64z" class="cls-1"/><path d="M176.81 40.22a3.77 3.77 0 0 1-.91-1c-.25-.41-.9 0-.65.38a4.72 4.72 0 0 0 1.18 1.26c.39.29.76-.36.38-.64zM179.39 41.38a6.17 6.17 0 0 0-1.4-1.57c-.37-.3-.9.23-.53.53a5.73 5.73 0 0 1 1.28 1.41c.26.41.91 0 .65-.37zM181.28 42.28a14.94 14.94 0 0 0-1.71-2.1c-.34-.35-.87.19-.53.53a14.31 14.31 0 0 1 1.6 1.95c.27.39.92 0 .64-.38z" class="cls-1"/><path d="M181.58 42.45a2.52 2.52 0 0 0-1.27-2.27.38.38 0 0 0-.38.65 1.74 1.74 0 0 1 .9 1.62.38.38 0 0 0 .75 0z" class="cls-1"/><path d="M183.2 42.4l-1.28-1.53c-.31-.37-.84.16-.53.53l1.28 1.53c.31.37.84-.16.53-.53z" class="cls-1"/><path d="M184.18 42.17l-1.29-.88c-.4-.27-.78.38-.38.65l1.29.88c.4.27.78-.38.38-.65zM185.48 41.73l-.64-.44c-.4-.28-.77.37-.38.65l.64.44c.4.28.78-.37.38-.65z" class="cls-1"/><path d="M186.06 42.06l-.65-.87c-.28-.38-.94 0-.65.38l.65.87c.29.38.94 0 .65-.38z" class="cls-1"/><path d="M187.11 42.39l-1.3-1.51c-.32-.37-.84.16-.53.53l1.3 1.51c.32.37.85-.16.53-.53z" class="cls-1"/><path d="M186.81 41.69l-.87-.65c-.38-.29-.76.36-.38.65l.87.65c.39.29.76-.36.38-.65z" class="cls-1"/><path d="M188.11 42.34a1.31 1.31 0 0 1-.48-.86c-.09-.47-.81-.27-.73.2a2.1 2.1 0 0 0 .84 1.31c.38.29.75-.36.37-.65zM190.86 42.47a2.3 2.3 0 0 0-1.32-1.24c-.45-.18-.65.55-.2.72a1.62 1.62 0 0 1 .88.9c.19.44.83.06.64-.38zM188.72 41.15l-.45-.64c-.27-.4-.92 0-.64.38l.44.64c.28.39.93 0 .65-.38zM203.71 42.14a2.72 2.72 0 0 1-1.08-1.53.37.37 0 0 0-.72.2 3.45 3.45 0 0 0 1.42 2c.4.28.78-.37.38-.64z" class="cls-1"/><path d="M201.83 41.49a.56.56 0 0 1-.78-.11c-.28-.38-.93 0-.65.38a1.33 1.33 0 0 0 1.81.38c.41-.26 0-.91-.38-.65z" class="cls-1"/><path d="M201.06 42l-.66-1.51c-.2-.44-.85-.06-.65.38l.67 1.51c.19.44.84.06.64-.38zM199.51 41.62a2.4 2.4 0 0 0-1.83-1.07c-.48 0-.48.7 0 .75a1.55 1.55 0 0 1 1.18.7c.27.39.92 0 .65-.38z" class="cls-1"/><path d="M198.46 41.37l-.88-1.28c-.27-.4-.92 0-.65.37l.89 1.29c.27.4.92 0 .64-.38zM194.74 39.92l-.87-.22c-.46-.11-.66.61-.2.73l.87.21a.37.37 0 0 0 .2-.72zM189.27 41.75l-1.08-1.08c-.34-.34-.88.19-.53.53l1.08 1.08a.38.38 0 0 0 .53-.53zM213.39 39.91c-1.83-.35-3.65-.74-5.45-1.2a.37.37 0 0 0-.2.72q2.7.69 5.45 1.2c.47.09.67-.64.2-.72z" class="cls-1"/><path d="M213.74 41.78a15.59 15.59 0 0 0-5.31-2.84.37.37 0 0 0-.2.72 14.68 14.68 0 0 1 5 2.65c.38.3.91-.23.53-.53z" class="cls-1"/><path d="M209 40a6.88 6.88 0 0 0-2.81-1.33c-.47-.11-.67.61-.19.72a6.2 6.2 0 0 1 2.47 1.14c.37.3.91-.23.53-.53zM208.71 41.62a14.74 14.74 0 0 0-4-2.34c-.45-.18-.64.54-.2.72a13.55 13.55 0 0 1 3.67 2.15c.37.3.9-.22.53-.53z" class="cls-1"/><path d="M205.05 40.13a6.46 6.46 0 0 1-2.71-.46c-.44-.18-.64.54-.19.72a6.83 6.83 0 0 0 2.9.49c.48 0 .48-.77 0-.75zM205.06 42.45l-1.26-1.13c-.36-.33-.89.2-.53.53l1.26 1.15c.35.32.89-.21.53-.53z" class="cls-1"/><path d="M205.74 41.33l-2.39-1.95c-.37-.31-.9.22-.53.53l2.39 2c.37.3.9-.23.53-.53zM220.79 37.55a4.69 4.69 0 0 1-2.79-1.41v.53h.38c.37.31.9-.22.53-.53a1 1 0 0 0-1.44 0 .38.38 0 0 0 0 .53 5.32 5.32 0 0 0 3.08 1.61c.47.07.67-.66.2-.73z" class="cls-1"/><path d="M220.18 37.37l-3.05-2.14c-.4-.28-.77.37-.38.65L219.8 38c.4.28.78-.37.38-.65z" class="cls-1"/><path d="M222.49 36.87q-2.25-.79-4.43-1.75c-.44-.19-.82.46-.38.65q2.26 1 4.61 1.83c.46.16.65-.57.2-.73z" class="cls-1"/><path d="M223.31 36.55a10.67 10.67 0 0 0-4.07-2.29c-.46-.14-.66.59-.2.73a9.55 9.55 0 0 1 3.74 2.09c.35.32.89-.21.53-.53zM223.9 35a5.46 5.46 0 0 1-3.2-1.45c-.35-.32-.88.21-.53.53a6.3 6.3 0 0 0 3.73 1.67c.48 0 .48-.7 0-.75zM225.69 34a7.81 7.81 0 0 0-3-1.6.37.37 0 0 0-.2.72 6.77 6.77 0 0 1 2.66 1.41c.36.31.9-.22.53-.53zM227.16 31.88a22.7 22.7 0 0 1-3.1-2.13c-.38-.3-.91.23-.53.53a24.12 24.12 0 0 0 3.25 2.25.38.38 0 0 0 .38-.65zM227.75 30.49l-3.9-1.75c-.43-.2-.81.45-.37.65l3.89 1.75c.44.19.82-.45.38-.65z" class="cls-1"/><path d="M228.12 29.3l-3.47-.87a.38.38 0 0 0-.19.73l3.46.86a.37.37 0 0 0 .2-.72zM228 28.09a11 11 0 0 1-3.17-.46.37.37 0 0 0-.2.72 11.64 11.64 0 0 0 3.37.49.38.38 0 0 0 0-.75zM227.16 26.25a3.1 3.1 0 0 1-1.55-.38c-.42-.23-.8.42-.38.65a3.92 3.92 0 0 0 1.93.48.38.38 0 0 0 0-.75z" class="cls-1"/><path d="M228.56 28l-2.83-1.05c-.45-.16-.65.56-.2.73l2.83 1.05c.46.16.65-.56.2-.73z" class="cls-1"/><path d="M229.33 27.48l-2.61-.34c-.48-.06-.47.69 0 .75l2.61.34c.48.06.48-.69 0-.75zM227.75 30.26l-2.15-1.11c-.43-.22-.81.43-.38.65l2.16 1.1c.42.22.8-.42.37-.64zM224 32.78a4.21 4.21 0 0 0-3.39.95c-.38.31.16.84.53.53a3.37 3.37 0 0 1 2.66-.76c.48.07.68-.65.2-.72z" class="cls-1"/><path d="M223.9 32.34a4.83 4.83 0 0 0-2.59.65.38.38 0 0 0 .38.65 4 4 0 0 1 2.21-.55.38.38 0 0 0 0-.75zM224.62 31.33a4.79 4.79 0 0 0-3.68 0c-.44.19-.25.91.2.73a4.2 4.2 0 0 1 3.28 0c.45.18.65-.55.2-.72z" class="cls-1"/><path d="M224.56 33.06a10.36 10.36 0 0 0-2.95.72c-.44.18-.25.91.2.72a9.66 9.66 0 0 1 2.75-.69c.48-.05.48-.8 0-.75zM215.44 36.68a8.78 8.78 0 0 0-2.93-1.08c-.47-.08-.67.65-.2.73a8 8 0 0 1 2.75 1 .38.38 0 0 0 .38-.65zM213.5 37.31h-2.82a.38.38 0 0 0 0 .75h2.82a.38.38 0 0 0 0-.75z" class="cls-1"/><path d="M214.15 38.86a5.53 5.53 0 0 1-2.61-.88c-.41-.26-.78.39-.38.65a6.35 6.35 0 0 0 3 1c.48 0 .48-.71 0-.75zM213.16 37.12l-2.81-.69c-.46-.12-.66.61-.19.72l2.8.69c.47.12.67-.61.2-.72z" class="cls-1"/><path d="M215.11 39.09l-3.23-.73c-.47-.11-.68.62-.2.72l3.23.73c.47.11.67-.61.2-.72zM213.82 39.92a10.28 10.28 0 0 0-3.57-.45c-.48 0-.48.78 0 .75a9.61 9.61 0 0 1 3.37.42c.46.15.66-.57.2-.72zM196.42 40.45a4.25 4.25 0 0 0-2.11-1.19c-.47-.12-.67.61-.2.72a3.52 3.52 0 0 1 1.78 1c.34.35.87-.18.53-.53zM192.41 41.12l-2.13-.94c-.44-.19-.82.45-.38.65l2.13.94c.44.19.82-.46.38-.65z" class="cls-1"/><path d="M191.93 40.56a2.89 2.89 0 0 1-1.37-.75c-.35-.33-.88.2-.53.53a3.71 3.71 0 0 0 1.7.94.37.37 0 0 0 .2-.72zM184.89 42.39a.38.38 0 0 0 0-.75.38.38 0 0 0 0 .75z" class="cls-1"/><path d="M180.66 42l-14.31-5.21h-6.17L155 34.21s-.65 1.95-15.93 1.95-35.7 14.31-35.7 14.31-13.67 16.21 7.27 43.71zM116.75 173.69a45.72 45.72 0 0 0-2.1 25.7c2.93 14.63 30.24 22.11 32.19 20.81s21.93-2 36.82-11.59zM246.61 195a55 55 0 0 0-2.22 7.37c-.33 2.27 3.42 14.85 26.1 5.47 0 0-9.19 1.68-9.52 6.56s3.58 19.18 7.81 20.16h1.51a3.43 3.43 0 0 0 .76 2.38c1.1 1.21 3.35 1.38 5.31.11l.11 1.41c.91-.61 2.26 1.13 1.3-.68 0 0 2 2.09 7.7-.3 0 0 7.15 0 8-.75s10.64-11.3 10.64-11.3l-44.61-33.71z" class="cls-4"/><path fill="#e76828" d="M440.9 117.28s18.83-35.08-107-77l-23.1-8.56-81.29 8.56v-12l-6.84 9.41-8.56.86v4.28l-6.84-2.57-5.14 4.28-6.84-4.28v4.28l-6-2.57-6.85 1.71a53 53 0 0 0-20.64-1.07C142.24 45.54 130.42 58.89 127 63l-16.4 31.14c-.52 1.42-1 2.83-1.58 4.25l-4.4.88s-5.14 58.19 5.13 67.6l6.85 5.13s1.72 35.94 35.09 39.37 52.19-12.84 52.19-12.84 8.56-8.56 38.51-2.57l17.11-4.28a31.34 31.34 0 0 0 5 18.18l1.82 2s11.12 24.34 38.5 13.22c0 0 13.69-14.55 17.11-28.24 0 0 34.23-21.39 53.06-26.53s68.48-35.79 65.91-53.03z"/><path d="M229.55 28.29a78.12 78.12 0 0 0 .91 21.45c4.16 22.64 17.43 37.53 24 44l-13.77 102a47.84 47.84 0 0 0-38.93 3.71s11.71-61.13 6.83-78.36 1-21.46-19.83-72.18l-8.1-6.91h8.68l6-1.71 6.45 2.71 6.83-2.6 4.88 2.28c.43-2 .87-3.9 1.3-5.86l5.61 1.12zM361.45 50.47c-3.23 2.62-27.54 23-27.45 57.33.08 31 20.1 50.34 23.54 53.55a28 28 0 0 0 8.34 4.92 28.43 28.43 0 0 0 13.45 1.58s17.56-4.23-2.6-23.73c-22.28-21.56 2-74.18 16.91-77.07.95-.18 2.61-.32 2.79-1.08 0 .03.48-2.07-34.98-15.5zM104.63 99.31s-17.51 4.62-43.08 0c0 0 39.88 23.56 14.3 76.45 0 0 20.8-9.62 36.41-7a180.83 180.83 0 0 1-8.26-48.49 176.43 176.43 0 0 1 .63-20.96z" class="cls-6"/><path d="M319.4 120.7L288.59 95l-21.76-2.94-2.77.16-2 .06-3.85 2.06-1.63.48-1.3.49-1.68 1.3-.94.12-.79 1.62c-2.16.37-2.87 1.07-3.09 1.68s0 .87-.16 1.46a3.44 3.44 0 0 1-2.39 1.84l-2.33 1.9-.05 2.44-2.22 2.44-1.25 2.11-2.82 6.07s.22 14.31 1.3 17.34 6.72 21.9 31.87 27.75 36.41-1.09 36.41-1.09a35 35 0 0 1 12.26-41.59z" class="cls-7"/><path d="M305.41 133.93l-44.44-14.96M307.8 126.45l-35.56-17.18" class="cls-8"/><path fill="#191313" d="M287.85 96L277 98.16l-1.08 3.25h-5.85v2.82h-5.42v5l-6.51 1.08 1.09 4.55h-4.75s.41 5.85 1.5 5.85-2.6-.21-2.82 4.12c0 0 1.3 4.05 2.6 3.44l-2.6 3.5 1.32 2-1.32 5.64 4.55 1.89-.87 5.26 3 1.73.87 5 3.9 1.3 2.38 5.2 6.22 4.24s-38.3-3.59-35.7-45.64c3-13.76 13-24.42 25.57-27.16 12.45-2.77 22.46 3.28 24.77 4.77z"/><path fill="#bc490a" d="M310.87 31.72s-6.54-15.06-15.21-20.48v4.11s-4.77-4.76-7.81-5.2-8-6.93-12.57-8.67c0 0 4.67 5.2 3.2 5.85S258.81.18 258.81.18s5.07 4.77 3.83 6.07-19.66-3-19.66-3 6.29 7.8 0 8a72.67 72.67 0 0 1-11-.44s11.27 7.37 8.67 7.59-10.65.6-14.36-.23a3.06 3.06 0 0 0 1.27 3.69c2.2 1.51 7.83 3.47 6.75 4.33s-.87 3.8 1.95 5.15l-6.71-.76v9.49z"/><path fill="#da5419" d="M238.76 39.3s-9-6.29-8.13-8.72 14.46 8.06 14.46 8.06l6.84-.72S227.16 21.86 227.16 21s11.32.91 33 16.06l6.33-.66S235.18 18 232.58 10.8c0 0 25.46 9.76 40 24.5l5.86-.54S248 10.37 242.76 4.08c0 0 13.58.44 41.26 30.46l4.81-.51S256.64 3.22 259.46.18s35.66 33.19 35.66 33.19l3.4-.36S279.62 8.85 277.23 3s29 29.2 29 29.2z"/><path d="M61.55 99.31a62.84 62.84 0 0 0-42.71 38.3 49.6 49.6 0 0 0 9.32 19.08 51.24 51.24 0 0 0 27.78 17.47c3.05 1.51 12.71 5.82 19.91 1.6 7.5-4.39 7.87-15.43 8.28-27.74.25-7.29.53-15.91-3.8-26.08a52.63 52.63 0 0 0-18.78-22.63z" class="cls-7"/><path d="M61.55 99.31s-54.2 3-60.92 33.75 42.27 49 42.27 49 22.33 4.12 32.95-6.29c0 0-29.48 6.29-52.46-26.66 0-.01-19.51-21.98 38.16-49.8zM440.51 115.55c-5.19 1.8-12.91 9.32-18.26 4.44-1.43-1.29-3.55.82-2.12 2.13 6.95 6.33 14.47-1.35 21.18-3.68 1.81-.63 1-3.53-.8-2.89z" class="cls-4"/><path fill="#c65d00" d="M398.19 105.1s16.26.32 12.68-20.81c0 0-1.95-15.61-23.09-10.41 0 0-19.51 11.71-6.5 25 0 .04 8.07 9.63 16.91 6.22z"/><path d="M398.44 101.59s10.33.22 8.05-13.76c0 0-1.23-10.31-14.66-6.87 0 0-12.4 7.73-4.13 16.55 0 0 5.12 6.34 10.74 4.08z" class="cls-4"/></g></g></g></svg>