<svg xmlns="http://www.w3.org/2000/svg" viewBox="0 0 181.84 518.17"><defs><style>#nome-1{padding-top:20vh}#animal-1{display:flex}#animal-1 svg{width:50%;height:90%}.cls-5{fill:#fff}.cls-8{fill:#cbdbc8}.cls-10{fill:#160f0c}.cls-15{fill:#6bd5ed}</style></defs><g id="Camada_2" data-name="Camada 2"><g id="Camada_1-2" data-name="Camada 1"><g id="Peixe_Arqueiro" data-name="Peixe Arqueiro"><path fill="#bed3a3" d="M45 439.41h-3.08a1.14 1.14 0 0 1-.9-.28 1.12 1.12 0 0 1-.15-.85q.27-3.31.56-6.62a5.37 5.37 0 0 0-.08-1.92 4.84 4.84 0 0 0-1-1.72c-2.6-3.17-5.71-6.16-6.84-10.1-.28-.94-.43-1.92-.79-2.82a6.62 6.62 0 0 0-3.3-3.53l-.85 1a4.28 4.28 0 0 1-4.93 1.43 1.3 1.3 0 0 1-.58-.39 1.36 1.36 0 0 1-.12-1.07c.84-4.84 5.29-8.22 7.18-12.76l11.64-14q-13.68 12.41-15.89 10.62-1-.78.27-4.32c8.41-7.82 14.25-12.95 18-15.73a21 21 0 0 0 5.86-6.24 18.81 18.81 0 0 0 2-4.33 45 45 0 0 1-7 5.79 46.1 46.1 0 0 1-10.44 5.2c-.5-2.19.76-4.36 2-6.23q3.16-4.74 6.7-9.2a22.57 22.57 0 0 1 3.41-3.63 23 23 0 0 1 4.13-2.48q4.2-2.14 8.46-4.23a23.23 23.23 0 0 1-9.21 4.25 6 6 0 0 1-3.4 0 2.49 2.49 0 0 1-1.71-2.65 3.61 3.61 0 0 1 2.06-2.09c4-2.12 11.74-3.59 14.35-4.08"/><path fill="#1b0e0d" d="M48.68 394.77c-6.26 4.87-10.67 11.69-15 18.38a5.17 5.17 0 0 0-.83 1.76 4.48 4.48 0 0 0 .27 2.14 20.47 20.47 0 0 0 4.65 7.88c1.21 1.27 2.79 2.46 4.53 2.29 2.18-.2 3.59-2.33 4.56-4.29 3.34-6.72 5.4-14 7.44-21.22a8.38 8.38 0 0 0 .47-2.84 4.45 4.45 0 0 0-5-3.93"/><path fill="#98b49c" d="M78.79 448c.91 9.79 9.47 19.34 19.23 18.13 3.22-.39 6.2-1.86 9.2-3.09a68.59 68.59 0 0 1 34.26-4.64c2.23.27 4.66.61 6.58-.56a8.78 8.78 0 0 0 3.12-4.31 63.09 63.09 0 0 0 5.09-23.37c.32-14.11-4-28.95 1.56-41.92l-50.05 33.17S79 436.28 79.67 445.17z"/><path fill="#171419" d="M80.89 455.32c3.6-4.54 10-5.62 15.85-5.51s11.77 1 17.28-.76a50.11 50.11 0 0 0 8.41-4.22 65.92 65.92 0 0 1 33.29-8.13s-1.53 17.59-8.37 21.52c0 0-24.19 1.59-26.48.83S98 466.15 98 466.15s-8.9 1.49-16-8.87z"/><path d="M145.44 410.42c.21 6.93.42 13.85.27 20.78-.13 6.14.92 16.42-4.16 20.84-.37.32.16.85.53.53 4.22-3.68 3.88-10.34 4.16-15.44.49-8.9.22-17.81-.05-26.71 0-.48-.77-.48-.75 0zM136.18 416a229.14 229.14 0 0 1-4.68 38.53c-.1.47.62.67.72.2a229.46 229.46 0 0 0 4.71-38.73c0-.49-.73-.49-.75 0zM128.36 424c-.39 4.55-.69 9.13-1.19 13.68-.58 5.28-2.34 9.93-3.63 15a.37.37 0 0 0 .72.2c1.14-4.48 2.82-8.7 3.44-13.31.69-5.16 1-10.41 1.41-15.59 0-.49-.71-.48-.75 0zM114.7 433.86a59.92 59.92 0 0 0-2.29 19.48c0 .48.77.49.75 0a59.25 59.25 0 0 1 2.27-19.28.38.38 0 0 0-.73-.2zM112.55 423.29c-3.29 4.14-6.76 7.36-8.86 12.32-2.83 6.7-5.41 13.13-11.32 17.75-.38.3.15.83.53.53 4.61-3.6 7.44-8.42 9.75-13.73 1.19-2.75 2.08-5.73 3.67-8.28 1.86-3 4.59-5.33 6.77-8.06.29-.38-.23-.91-.54-.53z" class="cls-5"/><path fill="#d5fdf8" d="M175.69 345.76c-.67 14.29-1.26 29.06 3.81 42.45a5 5 0 0 1 .5 2.91c-.25 1-1.45 1.74-2.27 1.17-.58-.41-.66-1.21-.83-1.9a5.71 5.71 0 0 0-4.56-4.19 11.33 11.33 0 0 1-2.56 5.48c-4.07-3.17-8.55-7.17-8.31-12.32a15.68 15.68 0 0 1 1-4.3 266.29 266.29 0 0 1 11.63-28.52"/><path fill="#b2d3b7" d="M158.32 228.69c2.18 4.29-2.91 8.55-7.24 10.66-9.13 4.42-18.48 8.67-26.35 15.08-9.15 7.44-15.83 17.41-22.36 27.23q-16.05 24.09-32.08 48.18c-4.71 7.07-9.46 14.2-12.63 22.09-2.48 6.18-3.95 12.71-5.42 19.21-5 22-10 44.63-7.12 67.05.43 3.45 1 7.12-.42 10.28-1.11 2.42-3.25 4.18-5.36 5.8a174.34 174.34 0 0 1-33.4 20.18c-1.78.82-3.65 1.67-4.81 3.25-1.91 2.59-1.22 6.42.75 9s4.9 4.15 7.74 5.66l19.86 10.54c14.14 7.5 29 15.19 45 15.29a5.56 5.56 0 0 0 3.32-.72c1.69-1.22 1.65-3.84 1.63-5.08-.09-4.56-1-18.93-2.64-38.22-.2-3.63-.41-7.25-.62-10.88.18-13.8 9.23-26.15 20.23-34.49s24-13.53 36.22-19.93 24.25-14.52 31-26.55c3-5.32 4.83-11.19 6.64-17l7.89-25.32a81.49 81.49 0 0 0 3.31-13.18c1.59-11.88-2.13-23.73-4.41-35.49-1.41-7.24-3.65-16.48-4.54-28.78a149.39 149.39 0 0 1 1.25-33.68z"/><path d="M43.47 462.37a69.84 69.84 0 0 1-22.71 34.71c-.37.3.16.83.53.53a70.58 70.58 0 0 0 22.91-35 .38.38 0 0 0-.73-.2zM49.82 470.58q-6.27 17.73-13.6 35.06c-.18.44.46.82.65.38q7.37-17.41 13.67-35.24c.16-.46-.56-.66-.72-.2zM60.49 469.57a173.16 173.16 0 0 1-7.68 20.78c-2.64 5.9-5.38 13.1-10.48 17.29-.37.31.16.83.53.53 5.22-4.29 7.9-11.43 10.6-17.44a174.52 174.52 0 0 0 7.76-21c.14-.47-.59-.66-.73-.2zM27.9 475.86c-5.11 5.16-7.81 12-11.21 18.26-.23.42.42.8.65.38 3.37-6.24 6-13 11.09-18.11a.38.38 0 0 0-.53-.53zM68.49 471.8c-5 13.33-5 28.82-13.92 40.48-.29.38.36.76.65.38 8.94-11.72 9-27.27 14-40.66.17-.45-.55-.65-.72-.2zM56.59 494.42a96.63 96.63 0 0 1-8.4 15c-.27.4.38.77.65.38a97.93 97.93 0 0 0 8.4-15c.2-.43-.45-.81-.65-.37z" class="cls-8"/><path fill="#abc6a7" d="M137.83 320.78c-1.47 15.1-3.15 30.83-11.29 43.63a16 16 0 0 0 12.44.91c4.47-1.45 8.17-4.58 11.75-7.63l8-6.85a2.57 2.57 0 0 0 .85-3.8q-6.62-14.66-13.26-29.31"/><path d="M107.69 381.06c-3.53-4.86-8.4-8.57-13.41-11.89a185.07 185.07 0 0 0-16.84-9.85c-1.6-.84-3.33-1.68-5.12-1.45a6.1 6.1 0 0 0-4.32 3.29 18.1 18.1 0 0 0-1.66 5.38c-.63 3.21-.87 7.34 2 8.92a12 12 0 0 0 3.54.9 10.91 10.91 0 0 1 3.56 1.43 3.86 3.86 0 0 1 1.51 1.49 8.37 8.37 0 0 0 .7 1.68c.92 1.16 2.75.4 4.24.4 3.65 0 5.15 4.73 8.17 6.78 2.86 1.94 6.69 1.19 10 .37a16.84 16.84 0 0 0 5.14-1.86 5.78 5.78 0 0 0 2.92-4.4M76.13 415.22c.49-6.23-3.9-12-9.33-15.12-1.59-.91-3.49-1.66-5.22-1.05-1.57.55-2.56 2.06-3.77 3.2-1.55 1.47-3.69 2.56-4.31 4.6a5.46 5.46 0 0 0 .5 3.89 12.49 12.49 0 0 0 8.6 6.39 25.06 25.06 0 0 0 11-.4M58 450.65a3.19 3.19 0 0 0 1-3.87 6 6 0 0 0-3.11-2.9 3.84 3.84 0 0 0-1.77-.45 3.08 3.08 0 0 0-2.51 1.94 10.26 10.26 0 0 0 .21 6.7 3.11 3.11 0 0 0 2.78 1.81 2 2 0 0 0 1.84-2.4M94.38 326.51a6.35 6.35 0 0 0-.15 3.92c.5 1.23 2.19 2.05 3.21 1.19-.56.48-.06 1.5.66 1.66a2.93 2.93 0 0 0 2.08-.61c1.25-.76 2.48-1.58 3.66-2.45a9.2 9.2 0 0 0 2.55-2.5 3.54 3.54 0 0 0 .27-3.43c-.19-.35-.47-.72-.37-1.11s.43-.53.68-.77a2.59 2.59 0 0 0 .55-2.58 7.47 7.47 0 0 0-1.37-2.4 8 8 0 0 0-3.37-3.07 8 8 0 0 0-3.31-.26l-5.66.34a2.4 2.4 0 0 0-1.15.26 2.23 2.23 0 0 0-.75 1 13.37 13.37 0 0 0-1.44 6.51 2.31 2.31 0 0 0 .29 1.25c.36.54 1 .74 1.6 1.07s1 1.09.62 1.6" class="cls-10"/><path fill="#ead9ce" d="M172 298.29c-4.87 6.45-10.63 12.66-18.95 7.2-4.67-3.06-8.9-6.48-13.94-9a52.72 52.72 0 0 0-29.32-5.7c-.47.05-.48.8 0 .75 14.82-1.61 28.63 4.07 40.39 12.73 3.72 2.73 7.59 5.7 12.4 3.91 4.29-1.6 7.42-6 10.06-9.53.29-.38-.36-.76-.64-.38z"/><circle cx="143.02" cy="263.67" r="13.06" fill="none" stroke="#fff" stroke-miterlimit="10" stroke-width=".5"/><circle cx="144" cy="262.83" r="9.85" fill="#d2eb66"/><circle cx="144.58" cy="262.23" r="7.17" fill="#0d042a"/><path d="M158.46 229.81a17.84 17.84 0 0 0 15.35.35c.44-.19.06-.84-.38-.64a17.08 17.08 0 0 1-14.6-.36c-.43-.22-.81.43-.37.65z" class="cls-10"/><path d="M168.48 121.94A83.91 83.91 0 0 1 162.37 55c.7-2.08 1.69-4.35 3.72-5.19 2.44-1 5.31.65 6.58 3s1.35 5 1.39 7.69c.2 11.47.39 23-1.39 34.36-1.42 9.08-4.1 18.15-3.08 27.28M160 162.87l-2.37-7.29a7.17 7.17 0 0 1-.49-4.09c.37-1.35 1.93-2.45 3.17-1.82s1.33 2.16 1.34 3.47v8.49M169.07 155.81a67.88 67.88 0 0 1 4.62-35.38q1.16 9.81 1.48 19.68c.24 7.43 0 15.29-3.9 21.61l-1.1-6.53M163 206.28a23.62 23.62 0 0 0-1.38 7.9c1.09 1.37 3.56.06 3.77-1.67s-.92-3.33-2-4.71M161.39 177.36c-1.06.68-2.26 1.64-2.11 2.9.24 2 3.67 1.67 4.38-.21s-.32-3.92-1.33-5.66M168.16 182.58a18.36 18.36 0 0 0-1.51 11.69c.1.5.3 1.07.79 1.19s1.1-.57 1.31-1.19a15.51 15.51 0 0 0-.85-12M170.76 165.29a11.94 11.94 0 0 0-1.77 7.35c0 .6.25 1.32.84 1.47s1.06-.31 1.41-.76a8.86 8.86 0 0 0 1.11-8.62M171 7.08c1 .06 2 .08 3.1 0 .48 0 1 0 1.4-.07-2.21-3.68-3.85-6.37-4.17-6.81a.67.67 0 0 0-.28-.21c-.45-.15-.88.29-1 .63a34.32 34.32 0 0 1-3.77 6.53c-.13.18-.24.44 0 .53a.69.69 0 0 0 .4 0c.25-.07 1.31-.18 2.87-.32-.45 7.67-.52 13.44-.51 17.34 0 3-.12 6.09-.16 9.13-.07 5.61.28 6.62-.64 8.33-.69 1.3-1.67 2.27-3.84 5.92l-.8 1.38 1.78-1.15c.6-.38 1.19-.77 1.79-1.17l2.25-1.49a19.12 19.12 0 0 0 4.34 3.36l-3.71-6.23" class="cls-15"/></g></g></g></svg>