<svg xmlns="http://www.w3.org/2000/svg" viewBox="0 0 374.62 214.12"><defs><style>#nome-1{padding-top:15vh;}#animal-1{display:flex}#animal-1 svg{width:70%;margin-left:2%}#descricao-1{width:55%}.cls-4{fill:#2074c1}.cls-5{fill:#3a9efc}.cls-7{fill:#02303c}</style></defs><g id="Camada_2" data-name="Camada 2"><g id="Camada_1-2" data-name="Camada 1"><g id="Anjo_Imperador" data-name="Anjo Imperador"><path fill="#3e5e32" d="M178.82 185.61C113.4 191 64.87 169.43 57.57 139.78c-1.47-6-2.41-17 6.11-33H47.81S33.87 124.74 30 123.71-7.68 73.31 1.61 58.65c0 0 .49-17.82 23.46-25.9 0 0 15.55 8.79 18.53 13.19 0 0-18-17.1-4.84-29.81A76.39 76.39 0 0 0 50.24 11c6.19-3.4 128.58 174.61 128.58 174.61z"/><path fill="#7456ae" d="M144.61 139.79c.71 3.6 7.46 35.28 34.21 45.82 2.1.83 26.68 10.14 40.28-2.82 6.48-6.18 7.54-14.62 7.82-17.11 2.88-25.82-26.22-50-26.39-49.85s2.36 3.09 14.17 17.35z"/><path fill="#e1d161" d="M325.4 69.16S290 24.68 268.71 20.53 248.43 3.42 140.17 0c0 0-80.89.49-89.93 11s10 55.71 10 55.71Q69.79 87.86 79.32 109a213.66 213.66 0 0 0 68.49 31.46 214.15 214.15 0 0 0 89.13 3.73s66.23 16.13 72.09 3.42c-.03-.01-46.43-67.7 16.37-78.45z"/><path d="M251.4 28.22a90.85 90.85 0 0 1-16.24-11.56c-2.87-2.57-7.13 1.66-4.24 4.24a97.73 97.73 0 0 0 17.45 12.5c3.37 1.89 6.4-3.29 3-5.18zM258.19 42.51l-31.46-16.68c-9.58-5.08-19.2-11.34-29.84-13.88-3.75-.89-5.35 4.89-1.59 5.79 10.69 2.55 20.46 9.06 30.1 14.17l29.76 15.78c3.41 1.81 6.44-3.37 3-5.18zM249.06 53.38c-21.83-17.85-46.18-30.45-71.72-42.08-3.48-1.59-6.54 3.58-3 5.18 25 11.4 49.09 23.64 70.49 41.14 3 2.43 7.24-1.79 4.25-4.24zM240.56 62q-29.31-15.63-57.63-33c-8.77-5.41-17.26-11.75-26.45-16.43A33.91 33.91 0 0 0 145.07 9c-5.14-.64-10.5-.31-15.29-2.6-3.46-1.65-6.51 3.52-3 5.19 8.28 3.95 17.72 1.84 26 5.8 9.5 4.55 18.21 11.28 27.17 16.8q28.29 17.4 57.63 33c3.41 1.81 6.44-3.37 3-5.18z" class="cls-4"/><path d="M236.88 74.23c-27.59-8.46-51.6-23.13-75.34-39.17-21.27-14.38-44.84-33-72.2-27.39-3.78.78-2.18 6.56 1.59 5.79 27.45-5.63 52.48 16.69 73.63 30.85 22.2 14.86 45.06 27.83 70.72 35.7 3.7 1.14 5.29-4.65 1.6-5.78zM236 87a545.57 545.57 0 0 1-66.2-29.06c-20.3-10.67-40.54-21.8-61.71-30.67A217.58 217.58 0 0 0 68 15c-3.77-.77-5.38 5-1.59 5.79 44.38 9.15 82 34.46 122.54 53.27C203.83 81 219 87.17 234.44 92.81c3.63 1.33 5.2-4.46 1.6-5.78zM235.21 101.63c-30.76-15.21-61.93-29.54-93.37-43.29C112 45.31 81.92 29.63 49.89 22.91c-3.76-.79-5.38 5-1.59 5.79 32.17 6.74 62.39 22.51 92.32 35.61 30.84 13.5 61.39 27.58 91.56 42.5 3.45 1.71 6.5-3.47 3-5.18z" class="cls-4"/><path d="M233 110.36q-45.42-19.45-92-36.16c-15.38-5.5-30.8-10-44.91-18.42L52.3 29.69c-3.33-2-6.35 3.21-3 5.18L93.09 61c13.49 8 28 12.49 42.69 17.72Q183.46 95.6 230 115.54c3.51 1.5 6.57-3.67 3-5.18z" class="cls-4"/><path d="M233.8 121.74c-17.93-1.61-33.41-8.06-48.92-16.86-14-7.93-29.57-10.62-44.46-16.37C108.77 76.27 79 61.28 51.53 41.16c-3.11-2.29-6.11 2.92-3 5.18 27.86 20.44 58.19 35.53 90.33 48a228.17 228.17 0 0 0 23.94 7.65c8.66 2.31 16.07 6.44 23.81 10.84a115.47 115.47 0 0 0 47.22 15c3.84.34 3.82-5.66 0-6z" class="cls-4"/><path d="M232.9 131.81a363.82 363.82 0 0 1-49-14.53c-15.62-5.88-30.22-13.52-45.33-20.48-6.93-3.2-14.11-5-21.27-7.47S104 81.59 97.13 78.14C83.26 71.15 67.67 68 54.49 59.5c-3.25-2.11-6.26 3.08-3 5.18 13.2 8.55 28.76 11.65 42.69 18.64 6.58 3.3 12.34 8.09 19.17 10.89 7.87 3.22 16.11 4.84 23.86 8.51 15 7.11 29.63 14.5 45.17 20.34a366.2 366.2 0 0 0 49 14.54c3.76.84 5.37-4.94 1.6-5.79zM217.11 139.27c-30.81-10.6-62.73-19.84-91.73-34.92-13.27-6.9-26-14.74-39.8-20.67C72.17 77.9 57.44 75 45.25 66.66c-3.2-2.18-6.2 3-3 5.18 12.22 8.37 26.88 11.29 40.33 17 14.33 6.11 27.56 14.42 41.39 21.49 29 14.86 60.83 24.13 91.58 34.71 3.66 1.26 5.23-4.54 1.59-5.79z" class="cls-4"/><path d="M215.24 151.28A545.27 545.27 0 0 1 127 114.84c-13.4-7-26.38-14.77-40.42-20.44-13.39-5.4-27.76-9.27-39.17-18.55-3-2.42-7.24 1.8-4.24 4.24 10.75 8.75 23.64 13.16 36.44 18C95.13 104 109.3 112.38 124 120a553.79 553.79 0 0 0 89.67 37.05c3.7 1.16 5.28-4.63 1.6-5.79z" class="cls-4"/><path d="M215.69 161.24c-15.3-.59-30.37-2.72-44.42-9.11s-27.9-14-41.77-21c-27.36-13.86-54.89-27.51-80.89-43.85-3.27-2.07-6.29 3.12-3 5.18 27.09 17 55.84 31.16 84.36 45.61 13.86 7 27.58 14.79 41.91 20.83 13.9 5.87 28.86 7.77 43.83 8.35 3.87.15 3.86-5.85 0-6z" class="cls-4"/><path d="M213.07 170.78c-14-2.66-28-5.35-41.42-10.37C160 156.06 149.1 150 138.29 144c-20.71-11.59-41.52-23.54-65.47-26.54-3.82-.48-3.79 5.53 0 6 24.41 3.06 45.6 16.43 66.7 28.09 10.12 5.6 20.42 10.94 31.29 14.95 13.14 4.85 26.94 7.48 40.66 10.09 3.78.72 5.39-5.07 1.6-5.79zM204.39 180.27a647.85 647.85 0 0 1-69.85-22.65q-17.41-6.76-34.4-14.56c-10-4.59-20-11-31.07-12.43-3.82-.51-3.78 5.5 0 6 6.13.8 11.6 3.82 17.1 6.47q8 3.84 16 7.45 16.07 7.2 32.49 13.53a650.31 650.31 0 0 0 68.12 22c3.74 1 5.33-4.8 1.59-5.78zM149.9 173.93c-7.09-2-13.58-5.41-20.33-8.29a89.22 89.22 0 0 0-18.51-5.46c-12.51-2.38-27.46-4.35-34.16-16.74-1.83-3.4-7-.38-5.18 3 6.51 12 19.89 16.16 32.49 18.53 7.77 1.47 15.35 2.9 22.68 6 7.13 3 14 6.59 21.41 8.72 3.72 1.07 5.31-4.72 1.6-5.78z" class="cls-4"/><path d="M264.31 53.55s22-2.25 17.11 48.59c0 0-1.34 25.62 14.6 46.66-.02 0-26.58-6.51-31.71-95.25z" class="cls-5"/><path fill="#00000c" d="M301.41 152s-22.19-8.56-22.68-43c0 0-.49-42.52-3.18-41.79 0 0-5.38-15.64-18.33-13.44s-13.68 18.57-13.68 18.57-3.42 50.83-2.93 61.59l-2.2 10.5c-7.6-1.28-16.88-2.34-17.84.25-.31.84.32 1.86 1.22 2.93 5.87 7 22.59 15.4 38.86 9.34a33.5 33.5 0 0 0 6.84-3.47 37.66 37.66 0 0 1-2.94 8.06 41.09 41.09 0 0 1-17.1 17.35s-16.13 1.22-20.53-13.2c0 0-5.62 21.51-20.28 21.51s-69.4-5.13-69.4-5.13-62.32-13.93-71.12-30.55-2.44-44.72-2.44-44.72-9.53-5.62-13 1-12.68 33.45-2.39 40.78c0 0 24.92 26.15 33 25.66 0 0 42.27 13.19 51.31 12.95 0 0 30.06 6.84 37.15 4.64 0 0 18.81 9.78 52.29 8.31 0 0-55.22 8.06-60.11 5.87 0 0 3.91 3.42 31.28 2.19 0 0-20 5.38-23.22 5.14 0 0 58.65 4.88 92.38-9.78s60.35-27.37 79.9-51.56l-63.78 4.4z"/><path d="M260.31 156.92c-4.85 1.81-10.14 1.35-15.06.15-8.28-2-16.65-5.22-21.91-12.14l-2.77-.26c-6.22 20.74 10.94 28.71 10.94 28.71 24.82 19.79 35-12 37.35-21.53l-1.1.52a32 32 0 0 1-7.45 4.55zM204.19 202a81 81 0 0 0-17.72 1.57c-7 1.27-14.06 1.5-21.13 1.74-1.44.05-1.45 2.3 0 2.25a178 178 0 0 0 18-1.23c7.08-1 13.63-2.32 20.82-2.08a1.13 1.13 0 0 0 0-2.25zM191.89 207a35.93 35.93 0 0 1-16.29 4.48c-1.44.05-1.45 2.3 0 2.25a38.42 38.42 0 0 0 17.4-4.82c1.27-.7.14-2.64-1.13-1.94z" class="cls-7"/><path fill="#000714" stroke="#000" stroke-miterlimit="10" d="M339.82 87.48L328.58 73.8s-17.11-2.44-32.26 25.41c0 0-3.42 21.51 12.71 48.39 0 0-10.26-28.35-.49-40.57s31.28-19.55 31.28-19.55z"/><path d="M325.4 69.16s-20.28-1.47-32.25 23.21c0 0-4.4 19.06 9 42.77a65.95 65.95 0 0 1-4.75-37.91 44.38 44.38 0 0 1 6.83-9.92 48 48 0 0 1 25.29-14.24z" class="cls-5"/><path fill="#9bcee4" d="M339.82 87.48s8.06 6.85 23.46 10.76a5.14 5.14 0 0 1 3.67 3.9s-7.58-.24-8.56 10.76c0 0 4.4-6.84 12.47-5.13 0 0 12.7 11.73-8.56 24.68 0 0-11.48 15.64-20 19.55 0 0-37.63 5.38-40.32 7.57 0 0-22.72 2.2-29.32-4.39 0 0 34.7-.74 36.41-7.58-.07 0-26.68-46.19 30.75-60.12z"/><path fill="#263233" d="M348.33 113.15c.35 3.13-1.74 6 1 8.58 2.44 2.3 6.66 2.36 9.81 2.46a.75.75 0 0 0 0-1.5c-2.72-.09-6.62 0-8.75-2s-.27-5-.55-7.52c-.11-.94-1.61-1-1.5 0z"/><circle cx="314.47" cy="89.97" r="4.12" fill="#83362c"/></g></g></g></svg>